<?xml version="1.0" encoding="utf-8" standalone="no"?>
<!DOCTYPE svg PUBLIC "-//W3C//DTD SVG 1.1//EN"
  "http://www.w3.org/Graphics/SVG/1.1/DTD/svg11.dtd">
<!-- Created with matplotlib (https://matplotlib.org/) -->
<svg height="345.6pt" version="1.1" viewBox="0 0 460.8 345.6" width="460.8pt" xmlns="http://www.w3.org/2000/svg" xmlns:xlink="http://www.w3.org/1999/xlink">
 <metadata>
  <rdf:RDF xmlns:cc="http://creativecommons.org/ns#" xmlns:dc="http://purl.org/dc/elements/1.1/" xmlns:rdf="http://www.w3.org/1999/02/22-rdf-syntax-ns#">
   <cc:Work>
    <dc:type rdf:resource="http://purl.org/dc/dcmitype/StillImage"/>
    <dc:date>2021-08-29T21:20:40.778415</dc:date>
    <dc:format>image/svg+xml</dc:format>
    <dc:creator>
     <cc:Agent>
      <dc:title>Matplotlib v3.3.4, https://matplotlib.org/</dc:title>
     </cc:Agent>
    </dc:creator>
   </cc:Work>
  </rdf:RDF>
 </metadata>
 <defs>
  <style type="text/css">*{stroke-linecap:butt;stroke-linejoin:round;}</style>
 </defs>
 <g id="figure_1">
  <g id="patch_1">
   <path d="M 0 345.6 
L 460.8 345.6 
L 460.8 0 
L 0 0 
z
" style="fill:#ffffff;"/>
  </g>
  <g id="axes_1">
   <g id="LineCollection_1">
    <path clip-path="url(#pfe09fd4a10)" d="M 75.059405 301.341609 
L 100.359152 285.596545 
" style="fill:none;stroke:#000000;"/>
    <path clip-path="url(#pfe09fd4a10)" d="M 100.359152 285.596545 
L 61.700313 280.999008 
" style="fill:none;stroke:#000000;"/>
    <path clip-path="url(#pfe09fd4a10)" d="M 100.359152 285.596545 
L 154.79377 274.601905 
" style="fill:none;stroke:#000000;"/>
    <path clip-path="url(#pfe09fd4a10)" d="M 315.30331 277.427982 
L 293.074735 264.015986 
" style="fill:none;stroke:#000000;"/>
    <path clip-path="url(#pfe09fd4a10)" d="M 293.074735 264.015986 
L 259.401414 249.628393 
" style="fill:none;stroke:#000000;"/>
    <path clip-path="url(#pfe09fd4a10)" d="M 303.772216 222.94156 
L 285.927036 231.321375 
" style="fill:none;stroke:#000000;"/>
    <path clip-path="url(#pfe09fd4a10)" d="M 285.927036 231.321375 
L 320.166631 214.315457 
" style="fill:none;stroke:#000000;"/>
    <path clip-path="url(#pfe09fd4a10)" d="M 285.927036 231.321375 
L 337.955536 234.467323 
" style="fill:none;stroke:#000000;"/>
    <path clip-path="url(#pfe09fd4a10)" d="M 285.927036 231.321375 
L 217.948312 242.372636 
" style="fill:none;stroke:#000000;"/>
    <path clip-path="url(#pfe09fd4a10)" d="M 230.515042 325.069412 
L 213.118251 305.613177 
" style="fill:none;stroke:#000000;"/>
    <path clip-path="url(#pfe09fd4a10)" d="M 213.118251 305.613177 
L 207.562455 329.890909 
" style="fill:none;stroke:#000000;"/>
    <path clip-path="url(#pfe09fd4a10)" d="M 213.118251 305.613177 
L 220.578253 329.594201 
" style="fill:none;stroke:#000000;"/>
    <path clip-path="url(#pfe09fd4a10)" d="M 213.118251 305.613177 
L 196.516976 264.10535 
" style="fill:none;stroke:#000000;"/>
    <path clip-path="url(#pfe09fd4a10)" d="M 123.30927 328.463772 
L 134.462521 304.988407 
" style="fill:none;stroke:#000000;"/>
    <path clip-path="url(#pfe09fd4a10)" d="M 134.462521 304.988407 
L 154.79377 274.601905 
" style="fill:none;stroke:#000000;"/>
    <path clip-path="url(#pfe09fd4a10)" d="M 195.519135 249.651013 
L 217.948312 242.372636 
" style="fill:none;stroke:#000000;"/>
    <path clip-path="url(#pfe09fd4a10)" d="M 217.948312 242.372636 
L 154.79377 274.601905 
" style="fill:none;stroke:#000000;"/>
    <path clip-path="url(#pfe09fd4a10)" d="M 217.948312 242.372636 
L 235.511137 201.990579 
" style="fill:none;stroke:#000000;"/>
    <path clip-path="url(#pfe09fd4a10)" d="M 259.401414 249.628393 
L 219.061948 236.904562 
" style="fill:none;stroke:#000000;"/>
    <path clip-path="url(#pfe09fd4a10)" d="M 152.466716 232.517857 
L 169.043674 247.525822 
" style="fill:none;stroke:#000000;"/>
    <path clip-path="url(#pfe09fd4a10)" d="M 169.043674 247.525822 
L 196.516976 264.10535 
" style="fill:none;stroke:#000000;"/>
    <path clip-path="url(#pfe09fd4a10)" d="M 36.359953 270.66428 
L 61.700313 280.999008 
" style="fill:none;stroke:#000000;"/>
    <path clip-path="url(#pfe09fd4a10)" d="M 439.854545 76.54741 
L 413.2586 85.12689 
" style="fill:none;stroke:#000000;"/>
    <path clip-path="url(#pfe09fd4a10)" d="M 413.2586 85.12689 
L 376.071091 97.928731 
" style="fill:none;stroke:#000000;"/>
    <path clip-path="url(#pfe09fd4a10)" d="M 335.830889 166.69264 
L 340.604475 188.166016 
" style="fill:none;stroke:#000000;"/>
    <path clip-path="url(#pfe09fd4a10)" d="M 340.604475 188.166016 
L 336.056377 215.790727 
" style="fill:none;stroke:#000000;"/>
    <path clip-path="url(#pfe09fd4a10)" d="M 338.257218 53.703358 
L 334.629784 80.615674 
" style="fill:none;stroke:#000000;"/>
    <path clip-path="url(#pfe09fd4a10)" d="M 334.629784 80.615674 
L 329.867852 113.097231 
" style="fill:none;stroke:#000000;"/>
    <path clip-path="url(#pfe09fd4a10)" d="M 416.59455 237.260302 
L 383.363181 235.472318 
" style="fill:none;stroke:#000000;"/>
    <path clip-path="url(#pfe09fd4a10)" d="M 383.363181 235.472318 
L 337.955536 234.467323 
" style="fill:none;stroke:#000000;"/>
    <path clip-path="url(#pfe09fd4a10)" d="M 21.379167 165.371333 
L 53.035844 168.798988 
" style="fill:none;stroke:#000000;"/>
    <path clip-path="url(#pfe09fd4a10)" d="M 53.035844 168.798988 
L 96.597814 171.827835 
" style="fill:none;stroke:#000000;"/>
    <path clip-path="url(#pfe09fd4a10)" d="M 368.746721 50.611148 
L 336.386971 59.722116 
" style="fill:none;stroke:#000000;"/>
    <path clip-path="url(#pfe09fd4a10)" d="M 336.386971 59.722116 
L 290.887665 62.947543 
" style="fill:none;stroke:#000000;"/>
    <path clip-path="url(#pfe09fd4a10)" d="M 214.056731 196.606732 
L 235.511137 201.990579 
" style="fill:none;stroke:#000000;"/>
    <path clip-path="url(#pfe09fd4a10)" d="M 235.511137 201.990579 
L 252.312375 200.914299 
" style="fill:none;stroke:#000000;"/>
    <path clip-path="url(#pfe09fd4a10)" d="M 235.511137 201.990579 
L 165.007637 164.438231 
" style="fill:none;stroke:#000000;"/>
    <path clip-path="url(#pfe09fd4a10)" d="M 235.511137 201.990579 
L 287.208034 206.769873 
" style="fill:none;stroke:#000000;"/>
    <path clip-path="url(#pfe09fd4a10)" d="M 235.511137 201.990579 
L 275.822725 158.262252 
" style="fill:none;stroke:#000000;"/>
    <path clip-path="url(#pfe09fd4a10)" d="M 235.511137 201.990579 
L 264.29903 257.95617 
" style="fill:none;stroke:#000000;"/>
    <path clip-path="url(#pfe09fd4a10)" d="M 235.511137 201.990579 
L 218.61824 206.531016 
" style="fill:none;stroke:#000000;"/>
    <path clip-path="url(#pfe09fd4a10)" d="M 295.764747 146.618937 
L 275.822725 158.262252 
" style="fill:none;stroke:#000000;"/>
    <path clip-path="url(#pfe09fd4a10)" d="M 275.822725 158.262252 
L 281.372291 140.926529 
" style="fill:none;stroke:#000000;"/>
    <path clip-path="url(#pfe09fd4a10)" d="M 275.822725 158.262252 
L 262.386364 120.635502 
" style="fill:none;stroke:#000000;"/>
    <path clip-path="url(#pfe09fd4a10)" d="M 275.822725 158.262252 
L 329.867852 113.097231 
" style="fill:none;stroke:#000000;"/>
    <path clip-path="url(#pfe09fd4a10)" d="M 275.822725 158.262252 
L 254.658156 206.886453 
" style="fill:none;stroke:#000000;"/>
    <path clip-path="url(#pfe09fd4a10)" d="M 263.004765 64.178206 
L 263.19028 89.512365 
" style="fill:none;stroke:#000000;"/>
    <path clip-path="url(#pfe09fd4a10)" d="M 263.19028 89.512365 
L 262.386364 120.635502 
" style="fill:none;stroke:#000000;"/>
    <path clip-path="url(#pfe09fd4a10)" d="M 270.170123 83.604105 
L 249.718448 92.83453 
" style="fill:none;stroke:#000000;"/>
    <path clip-path="url(#pfe09fd4a10)" d="M 249.718448 92.83453 
L 237.258891 109.070738 
" style="fill:none;stroke:#000000;"/>
    <path clip-path="url(#pfe09fd4a10)" d="M 219.061948 236.904562 
L 198.210506 209.890826 
" style="fill:none;stroke:#000000;"/>
    <path clip-path="url(#pfe09fd4a10)" d="M 219.061948 236.904562 
L 196.516976 264.10535 
" style="fill:none;stroke:#000000;"/>
    <path clip-path="url(#pfe09fd4a10)" d="M 20.945455 188.08925 
L 52.967704 182.549503 
" style="fill:none;stroke:#000000;"/>
    <path clip-path="url(#pfe09fd4a10)" d="M 52.967704 182.549503 
L 96.597814 171.827835 
" style="fill:none;stroke:#000000;"/>
    <path clip-path="url(#pfe09fd4a10)" d="M 237.612584 269.042407 
L 244.950039 241.826478 
" style="fill:none;stroke:#000000;"/>
    <path clip-path="url(#pfe09fd4a10)" d="M 244.950039 241.826478 
L 254.658156 206.886453 
" style="fill:none;stroke:#000000;"/>
    <path clip-path="url(#pfe09fd4a10)" d="M 368.153912 285.064472 
L 335.847548 274.648848 
" style="fill:none;stroke:#000000;"/>
    <path clip-path="url(#pfe09fd4a10)" d="M 335.847548 274.648848 
L 386.075202 279.113624 
" style="fill:none;stroke:#000000;"/>
    <path clip-path="url(#pfe09fd4a10)" d="M 335.847548 274.648848 
L 359.792191 294.336791 
" style="fill:none;stroke:#000000;"/>
    <path clip-path="url(#pfe09fd4a10)" d="M 335.847548 274.648848 
L 264.29903 257.95617 
" style="fill:none;stroke:#000000;"/>
    <path clip-path="url(#pfe09fd4a10)" d="M 420.016577 284.135648 
L 386.075202 279.113624 
" style="fill:none;stroke:#000000;"/>
    <path clip-path="url(#pfe09fd4a10)" d="M 150.753892 24.676415 
L 167.586698 39.743388 
" style="fill:none;stroke:#000000;"/>
    <path clip-path="url(#pfe09fd4a10)" d="M 167.586698 39.743388 
L 161.111946 15.709091 
" style="fill:none;stroke:#000000;"/>
    <path clip-path="url(#pfe09fd4a10)" d="M 167.586698 39.743388 
L 185.878301 73.150307 
" style="fill:none;stroke:#000000;"/>
    <path clip-path="url(#pfe09fd4a10)" d="M 195.239709 138.513639 
L 211.209245 120.907564 
" style="fill:none;stroke:#000000;"/>
    <path clip-path="url(#pfe09fd4a10)" d="M 211.209245 120.907564 
L 237.258891 109.070738 
" style="fill:none;stroke:#000000;"/>
    <path clip-path="url(#pfe09fd4a10)" d="M 376.071091 97.928731 
L 329.867852 113.097231 
" style="fill:none;stroke:#000000;"/>
    <path clip-path="url(#pfe09fd4a10)" d="M 132.64864 279.287032 
L 161.521561 271.484744 
" style="fill:none;stroke:#000000;"/>
    <path clip-path="url(#pfe09fd4a10)" d="M 161.521561 271.484744 
L 196.516976 264.10535 
" style="fill:none;stroke:#000000;"/>
    <path clip-path="url(#pfe09fd4a10)" d="M 366.66609 66.490417 
L 352.460542 87.117556 
" style="fill:none;stroke:#000000;"/>
    <path clip-path="url(#pfe09fd4a10)" d="M 352.460542 87.117556 
L 329.867852 113.097231 
" style="fill:none;stroke:#000000;"/>
    <path clip-path="url(#pfe09fd4a10)" d="M 218.650897 261.103008 
L 234.25181 236.667508 
" style="fill:none;stroke:#000000;"/>
    <path clip-path="url(#pfe09fd4a10)" d="M 234.25181 236.667508 
L 254.658156 206.886453 
" style="fill:none;stroke:#000000;"/>
    <path clip-path="url(#pfe09fd4a10)" d="M 100.817936 69.539903 
L 118.663221 88.301693 
" style="fill:none;stroke:#000000;"/>
    <path clip-path="url(#pfe09fd4a10)" d="M 118.663221 88.301693 
L 92.130988 77.939319 
" style="fill:none;stroke:#000000;"/>
    <path clip-path="url(#pfe09fd4a10)" d="M 118.663221 88.301693 
L 156.124617 111.639956 
" style="fill:none;stroke:#000000;"/>
    <path clip-path="url(#pfe09fd4a10)" d="M 354.992195 273.35028 
L 351.806757 249.296858 
" style="fill:none;stroke:#000000;"/>
    <path clip-path="url(#pfe09fd4a10)" d="M 351.806757 249.296858 
L 367.998342 265.860312 
" style="fill:none;stroke:#000000;"/>
    <path clip-path="url(#pfe09fd4a10)" d="M 351.806757 249.296858 
L 336.056377 215.790727 
" style="fill:none;stroke:#000000;"/>
    <path clip-path="url(#pfe09fd4a10)" d="M 166.044103 316.253041 
L 178.97091 294.252614 
" style="fill:none;stroke:#000000;"/>
    <path clip-path="url(#pfe09fd4a10)" d="M 178.97091 294.252614 
L 196.516976 264.10535 
" style="fill:none;stroke:#000000;"/>
    <path clip-path="url(#pfe09fd4a10)" d="M 185.878301 73.150307 
L 238.109232 65.444296 
" style="fill:none;stroke:#000000;"/>
    <path clip-path="url(#pfe09fd4a10)" d="M 185.878301 73.150307 
L 156.124617 111.639956 
" style="fill:none;stroke:#000000;"/>
    <path clip-path="url(#pfe09fd4a10)" d="M 270.9206 280.302048 
L 264.29903 257.95617 
" style="fill:none;stroke:#000000;"/>
    <path clip-path="url(#pfe09fd4a10)" d="M 264.29903 257.95617 
L 283.007478 291.182132 
" style="fill:none;stroke:#000000;"/>
    <path clip-path="url(#pfe09fd4a10)" d="M 264.29903 257.95617 
L 196.516976 264.10535 
" style="fill:none;stroke:#000000;"/>
    <path clip-path="url(#pfe09fd4a10)" d="M 96.597814 171.827835 
L 165.007637 164.438231 
" style="fill:none;stroke:#000000;"/>
    <path clip-path="url(#pfe09fd4a10)" d="M 296.165988 315.516013 
L 283.007478 291.182132 
" style="fill:none;stroke:#000000;"/>
    <path clip-path="url(#pfe09fd4a10)" d="M 329.867852 113.097231 
L 353.765457 105.001861 
" style="fill:none;stroke:#000000;"/>
    <path clip-path="url(#pfe09fd4a10)" d="M 196.516976 264.10535 
L 145.372228 234.791417 
" style="fill:none;stroke:#000000;"/>
    <path clip-path="url(#pfe09fd4a10)" d="M 290.887665 62.947543 
L 238.109232 65.444296 
" style="fill:none;stroke:#000000;"/>
    <path clip-path="url(#pfe09fd4a10)" d="M 88.124588 190.732248 
L 112.763955 208.536236 
" style="fill:none;stroke:#000000;"/>
    <path clip-path="url(#pfe09fd4a10)" d="M 112.763955 208.536236 
L 145.372228 234.791417 
" style="fill:none;stroke:#000000;"/>
    <path clip-path="url(#pfe09fd4a10)" d="M 367.66484 213.588955 
L 336.056377 215.790727 
" style="fill:none;stroke:#000000;"/>
    <path clip-path="url(#pfe09fd4a10)" d="M 336.056377 215.790727 
L 287.208034 206.769873 
" style="fill:none;stroke:#000000;"/>
    <path clip-path="url(#pfe09fd4a10)" d="M 237.258891 109.070738 
L 262.386364 120.635502 
" style="fill:none;stroke:#000000;"/>
    <path clip-path="url(#pfe09fd4a10)" d="M 145.372228 234.791417 
L 116.654405 229.003362 
" style="fill:none;stroke:#000000;"/>
    <path clip-path="url(#pfe09fd4a10)" d="M 349.108517 203.94949 
L 320.166631 214.315457 
" style="fill:none;stroke:#000000;"/>
    <path clip-path="url(#pfe09fd4a10)" d="M 156.124617 111.639956 
L 165.007637 164.438231 
" style="fill:none;stroke:#000000;"/>
    <path clip-path="url(#pfe09fd4a10)" d="M 181.577703 191.627321 
L 198.210506 209.890826 
" style="fill:none;stroke:#000000;"/>
   </g>
   <g id="PathCollection_1">
    <defs>
     <path d="M 0 8.660254 
C 2.296726 8.660254 4.499694 7.747755 6.123724 6.123724 
C 7.747755 4.499694 8.660254 2.296726 8.660254 0 
C 8.660254 -2.296726 7.747755 -4.499694 6.123724 -6.123724 
C 4.499694 -7.747755 2.296726 -8.660254 0 -8.660254 
C -2.296726 -8.660254 -4.499694 -7.747755 -6.123724 -6.123724 
C -7.747755 -4.499694 -8.660254 -2.296726 -8.660254 0 
C -8.660254 2.296726 -7.747755 4.499694 -6.123724 6.123724 
C -4.499694 7.747755 -2.296726 8.660254 0 8.660254 
z
" id="mdb2f19ab4b" style="stroke:#1f78b4;"/>
    </defs>
    <g clip-path="url(#pfe09fd4a10)">
     <use style="fill:#1f78b4;stroke:#1f78b4;" x="75.059405" xlink:href="#mdb2f19ab4b" y="301.341609"/>
     <use style="fill:#1f78b4;stroke:#1f78b4;" x="100.359152" xlink:href="#mdb2f19ab4b" y="285.596545"/>
     <use style="fill:#1f78b4;stroke:#1f78b4;" x="315.30331" xlink:href="#mdb2f19ab4b" y="277.427982"/>
     <use style="fill:#1f78b4;stroke:#1f78b4;" x="293.074735" xlink:href="#mdb2f19ab4b" y="264.015986"/>
     <use style="fill:#1f78b4;stroke:#1f78b4;" x="303.772216" xlink:href="#mdb2f19ab4b" y="222.94156"/>
     <use style="fill:#1f78b4;stroke:#1f78b4;" x="285.927036" xlink:href="#mdb2f19ab4b" y="231.321375"/>
     <use style="fill:#1f78b4;stroke:#1f78b4;" x="230.515042" xlink:href="#mdb2f19ab4b" y="325.069412"/>
     <use style="fill:#1f78b4;stroke:#1f78b4;" x="213.118251" xlink:href="#mdb2f19ab4b" y="305.613177"/>
     <use style="fill:#1f78b4;stroke:#1f78b4;" x="123.30927" xlink:href="#mdb2f19ab4b" y="328.463772"/>
     <use style="fill:#1f78b4;stroke:#1f78b4;" x="134.462521" xlink:href="#mdb2f19ab4b" y="304.988407"/>
     <use style="fill:#1f78b4;stroke:#1f78b4;" x="195.519135" xlink:href="#mdb2f19ab4b" y="249.651013"/>
     <use style="fill:#1f78b4;stroke:#1f78b4;" x="217.948312" xlink:href="#mdb2f19ab4b" y="242.372636"/>
     <use style="fill:#1f78b4;stroke:#1f78b4;" x="259.401414" xlink:href="#mdb2f19ab4b" y="249.628393"/>
     <use style="fill:#1f78b4;stroke:#1f78b4;" x="207.562455" xlink:href="#mdb2f19ab4b" y="329.890909"/>
     <use style="fill:#1f78b4;stroke:#1f78b4;" x="152.466716" xlink:href="#mdb2f19ab4b" y="232.517857"/>
     <use style="fill:#1f78b4;stroke:#1f78b4;" x="169.043674" xlink:href="#mdb2f19ab4b" y="247.525822"/>
     <use style="fill:#1f78b4;stroke:#1f78b4;" x="36.359953" xlink:href="#mdb2f19ab4b" y="270.66428"/>
     <use style="fill:#1f78b4;stroke:#1f78b4;" x="61.700313" xlink:href="#mdb2f19ab4b" y="280.999008"/>
     <use style="fill:#1f78b4;stroke:#1f78b4;" x="439.854545" xlink:href="#mdb2f19ab4b" y="76.54741"/>
     <use style="fill:#1f78b4;stroke:#1f78b4;" x="413.2586" xlink:href="#mdb2f19ab4b" y="85.12689"/>
     <use style="fill:#1f78b4;stroke:#1f78b4;" x="154.79377" xlink:href="#mdb2f19ab4b" y="274.601905"/>
     <use style="fill:#1f78b4;stroke:#1f78b4;" x="335.830889" xlink:href="#mdb2f19ab4b" y="166.69264"/>
     <use style="fill:#1f78b4;stroke:#1f78b4;" x="340.604475" xlink:href="#mdb2f19ab4b" y="188.166016"/>
     <use style="fill:#1f78b4;stroke:#1f78b4;" x="338.257218" xlink:href="#mdb2f19ab4b" y="53.703358"/>
     <use style="fill:#1f78b4;stroke:#1f78b4;" x="334.629784" xlink:href="#mdb2f19ab4b" y="80.615674"/>
     <use style="fill:#1f78b4;stroke:#1f78b4;" x="416.59455" xlink:href="#mdb2f19ab4b" y="237.260302"/>
     <use style="fill:#1f78b4;stroke:#1f78b4;" x="383.363181" xlink:href="#mdb2f19ab4b" y="235.472318"/>
     <use style="fill:#1f78b4;stroke:#1f78b4;" x="21.379167" xlink:href="#mdb2f19ab4b" y="165.371333"/>
     <use style="fill:#1f78b4;stroke:#1f78b4;" x="53.035844" xlink:href="#mdb2f19ab4b" y="168.798988"/>
     <use style="fill:#1f78b4;stroke:#1f78b4;" x="368.746721" xlink:href="#mdb2f19ab4b" y="50.611148"/>
     <use style="fill:#1f78b4;stroke:#1f78b4;" x="336.386971" xlink:href="#mdb2f19ab4b" y="59.722116"/>
     <use style="fill:#1f78b4;stroke:#1f78b4;" x="214.056731" xlink:href="#mdb2f19ab4b" y="196.606732"/>
     <use style="fill:#1f78b4;stroke:#1f78b4;" x="235.511137" xlink:href="#mdb2f19ab4b" y="201.990579"/>
     <use style="fill:#1f78b4;stroke:#1f78b4;" x="295.764747" xlink:href="#mdb2f19ab4b" y="146.618937"/>
     <use style="fill:#1f78b4;stroke:#1f78b4;" x="275.822725" xlink:href="#mdb2f19ab4b" y="158.262252"/>
     <use style="fill:#1f78b4;stroke:#1f78b4;" x="263.004765" xlink:href="#mdb2f19ab4b" y="64.178206"/>
     <use style="fill:#1f78b4;stroke:#1f78b4;" x="263.19028" xlink:href="#mdb2f19ab4b" y="89.512365"/>
     <use style="fill:#1f78b4;stroke:#1f78b4;" x="270.170123" xlink:href="#mdb2f19ab4b" y="83.604105"/>
     <use style="fill:#1f78b4;stroke:#1f78b4;" x="249.718448" xlink:href="#mdb2f19ab4b" y="92.83453"/>
     <use style="fill:#1f78b4;stroke:#1f78b4;" x="219.061948" xlink:href="#mdb2f19ab4b" y="236.904562"/>
     <use style="fill:#1f78b4;stroke:#1f78b4;" x="20.945455" xlink:href="#mdb2f19ab4b" y="188.08925"/>
     <use style="fill:#1f78b4;stroke:#1f78b4;" x="52.967704" xlink:href="#mdb2f19ab4b" y="182.549503"/>
     <use style="fill:#1f78b4;stroke:#1f78b4;" x="237.612584" xlink:href="#mdb2f19ab4b" y="269.042407"/>
     <use style="fill:#1f78b4;stroke:#1f78b4;" x="244.950039" xlink:href="#mdb2f19ab4b" y="241.826478"/>
     <use style="fill:#1f78b4;stroke:#1f78b4;" x="368.153912" xlink:href="#mdb2f19ab4b" y="285.064472"/>
     <use style="fill:#1f78b4;stroke:#1f78b4;" x="335.847548" xlink:href="#mdb2f19ab4b" y="274.648848"/>
     <use style="fill:#1f78b4;stroke:#1f78b4;" x="420.016577" xlink:href="#mdb2f19ab4b" y="284.135648"/>
     <use style="fill:#1f78b4;stroke:#1f78b4;" x="386.075202" xlink:href="#mdb2f19ab4b" y="279.113624"/>
     <use style="fill:#1f78b4;stroke:#1f78b4;" x="150.753892" xlink:href="#mdb2f19ab4b" y="24.676415"/>
     <use style="fill:#1f78b4;stroke:#1f78b4;" x="167.586698" xlink:href="#mdb2f19ab4b" y="39.743388"/>
     <use style="fill:#1f78b4;stroke:#1f78b4;" x="195.239709" xlink:href="#mdb2f19ab4b" y="138.513639"/>
     <use style="fill:#1f78b4;stroke:#1f78b4;" x="211.209245" xlink:href="#mdb2f19ab4b" y="120.907564"/>
     <use style="fill:#1f78b4;stroke:#1f78b4;" x="376.071091" xlink:href="#mdb2f19ab4b" y="97.928731"/>
     <use style="fill:#1f78b4;stroke:#1f78b4;" x="132.64864" xlink:href="#mdb2f19ab4b" y="279.287032"/>
     <use style="fill:#1f78b4;stroke:#1f78b4;" x="161.521561" xlink:href="#mdb2f19ab4b" y="271.484744"/>
     <use style="fill:#1f78b4;stroke:#1f78b4;" x="366.66609" xlink:href="#mdb2f19ab4b" y="66.490417"/>
     <use style="fill:#1f78b4;stroke:#1f78b4;" x="352.460542" xlink:href="#mdb2f19ab4b" y="87.117556"/>
     <use style="fill:#1f78b4;stroke:#1f78b4;" x="161.111946" xlink:href="#mdb2f19ab4b" y="15.709091"/>
     <use style="fill:#1f78b4;stroke:#1f78b4;" x="218.650897" xlink:href="#mdb2f19ab4b" y="261.103008"/>
     <use style="fill:#1f78b4;stroke:#1f78b4;" x="234.25181" xlink:href="#mdb2f19ab4b" y="236.667508"/>
     <use style="fill:#1f78b4;stroke:#1f78b4;" x="100.817936" xlink:href="#mdb2f19ab4b" y="69.539903"/>
     <use style="fill:#1f78b4;stroke:#1f78b4;" x="118.663221" xlink:href="#mdb2f19ab4b" y="88.301693"/>
     <use style="fill:#1f78b4;stroke:#1f78b4;" x="354.992195" xlink:href="#mdb2f19ab4b" y="273.35028"/>
     <use style="fill:#1f78b4;stroke:#1f78b4;" x="351.806757" xlink:href="#mdb2f19ab4b" y="249.296858"/>
     <use style="fill:#1f78b4;stroke:#1f78b4;" x="166.044103" xlink:href="#mdb2f19ab4b" y="316.253041"/>
     <use style="fill:#1f78b4;stroke:#1f78b4;" x="178.97091" xlink:href="#mdb2f19ab4b" y="294.252614"/>
     <use style="fill:#1f78b4;stroke:#1f78b4;" x="185.878301" xlink:href="#mdb2f19ab4b" y="73.150307"/>
     <use style="fill:#1f78b4;stroke:#1f78b4;" x="367.998342" xlink:href="#mdb2f19ab4b" y="265.860312"/>
     <use style="fill:#1f78b4;stroke:#1f78b4;" x="252.312375" xlink:href="#mdb2f19ab4b" y="200.914299"/>
     <use style="fill:#1f78b4;stroke:#1f78b4;" x="270.9206" xlink:href="#mdb2f19ab4b" y="280.302048"/>
     <use style="fill:#1f78b4;stroke:#1f78b4;" x="264.29903" xlink:href="#mdb2f19ab4b" y="257.95617"/>
     <use style="fill:#1f78b4;stroke:#1f78b4;" x="96.597814" xlink:href="#mdb2f19ab4b" y="171.827835"/>
     <use style="fill:#1f78b4;stroke:#1f78b4;" x="296.165988" xlink:href="#mdb2f19ab4b" y="315.516013"/>
     <use style="fill:#1f78b4;stroke:#1f78b4;" x="283.007478" xlink:href="#mdb2f19ab4b" y="291.182132"/>
     <use style="fill:#1f78b4;stroke:#1f78b4;" x="329.867852" xlink:href="#mdb2f19ab4b" y="113.097231"/>
     <use style="fill:#1f78b4;stroke:#1f78b4;" x="196.516976" xlink:href="#mdb2f19ab4b" y="264.10535"/>
     <use style="fill:#1f78b4;stroke:#1f78b4;" x="290.887665" xlink:href="#mdb2f19ab4b" y="62.947543"/>
     <use style="fill:#1f78b4;stroke:#1f78b4;" x="220.578253" xlink:href="#mdb2f19ab4b" y="329.594201"/>
     <use style="fill:#1f78b4;stroke:#1f78b4;" x="88.124588" xlink:href="#mdb2f19ab4b" y="190.732248"/>
     <use style="fill:#1f78b4;stroke:#1f78b4;" x="112.763955" xlink:href="#mdb2f19ab4b" y="208.536236"/>
     <use style="fill:#1f78b4;stroke:#1f78b4;" x="337.955536" xlink:href="#mdb2f19ab4b" y="234.467323"/>
     <use style="fill:#1f78b4;stroke:#1f78b4;" x="92.130988" xlink:href="#mdb2f19ab4b" y="77.939319"/>
     <use style="fill:#1f78b4;stroke:#1f78b4;" x="238.109232" xlink:href="#mdb2f19ab4b" y="65.444296"/>
     <use style="fill:#1f78b4;stroke:#1f78b4;" x="367.66484" xlink:href="#mdb2f19ab4b" y="213.588955"/>
     <use style="fill:#1f78b4;stroke:#1f78b4;" x="336.056377" xlink:href="#mdb2f19ab4b" y="215.790727"/>
     <use style="fill:#1f78b4;stroke:#1f78b4;" x="254.658156" xlink:href="#mdb2f19ab4b" y="206.886453"/>
     <use style="fill:#1f78b4;stroke:#1f78b4;" x="237.258891" xlink:href="#mdb2f19ab4b" y="109.070738"/>
     <use style="fill:#1f78b4;stroke:#1f78b4;" x="145.372228" xlink:href="#mdb2f19ab4b" y="234.791417"/>
     <use style="fill:#1f78b4;stroke:#1f78b4;" x="116.654405" xlink:href="#mdb2f19ab4b" y="229.003362"/>
     <use style="fill:#1f78b4;stroke:#1f78b4;" x="349.108517" xlink:href="#mdb2f19ab4b" y="203.94949"/>
     <use style="fill:#1f78b4;stroke:#1f78b4;" x="320.166631" xlink:href="#mdb2f19ab4b" y="214.315457"/>
     <use style="fill:#1f78b4;stroke:#1f78b4;" x="281.372291" xlink:href="#mdb2f19ab4b" y="140.926529"/>
     <use style="fill:#1f78b4;stroke:#1f78b4;" x="262.386364" xlink:href="#mdb2f19ab4b" y="120.635502"/>
     <use style="fill:#1f78b4;stroke:#1f78b4;" x="353.765457" xlink:href="#mdb2f19ab4b" y="105.001861"/>
     <use style="fill:#1f78b4;stroke:#1f78b4;" x="156.124617" xlink:href="#mdb2f19ab4b" y="111.639956"/>
     <use style="fill:#1f78b4;stroke:#1f78b4;" x="181.577703" xlink:href="#mdb2f19ab4b" y="191.627321"/>
     <use style="fill:#1f78b4;stroke:#1f78b4;" x="198.210506" xlink:href="#mdb2f19ab4b" y="209.890826"/>
     <use style="fill:#1f78b4;stroke:#1f78b4;" x="165.007637" xlink:href="#mdb2f19ab4b" y="164.438231"/>
     <use style="fill:#1f78b4;stroke:#1f78b4;" x="287.208034" xlink:href="#mdb2f19ab4b" y="206.769873"/>
     <use style="fill:#1f78b4;stroke:#1f78b4;" x="359.792191" xlink:href="#mdb2f19ab4b" y="294.336791"/>
     <use style="fill:#1f78b4;stroke:#1f78b4;" x="218.61824" xlink:href="#mdb2f19ab4b" y="206.531016"/>
    </g>
   </g>
  </g>
 </g>
 <defs>
  <clipPath id="pfe09fd4a10">
   <rect height="345.6" width="460.8" x="0" y="0"/>
  </clipPath>
 </defs>
</svg>
